<?xml version="1.0" encoding="utf-8"?>
<!DOCTYPE svg
  PUBLIC '-//W3C//DTD SVG 1.0//EN'
  'http://www.w3.org/TR/2001/REC-SVG-20010904/DTD/svg10.dtd'>
<svg width="566.9291338582677" height="566.9291338582677" preserveAspectRatio="xMinYMin meet" viewBox="0 0 566 566" xmlns="http://www.w3.org/2000/svg" version="1.0" fill-rule="evenodd" xmlns:xlink="http://www.w3.org/1999/xlink">
	<title>...</title>
	<desc>...</desc>
	<clipPath id="clip">
		<rect x="0" y="0" width="566.9291338582677" height="566.9291338582677"/>
	</clipPath>
	<g id="group" transform="scale(1,-1) translate(0,-566)" style="clip-path: url(#clip)">
		<g transform="">
			<path d="M 475.7263 383.761722 L 474.341995 386.371811 L 472.922258 388.962797 L 471.467353 391.5342 L 469.97755 394.085543 L 468.453126 396.616352 L 466.894363 399.126156 L 465.301551 401.614491 L 463.674985 404.080895 L 462.014967 406.524909 L 460.321807 408.94608 L 458.595817 411.343958 L 456.837318 413.718099 L 455.046637 416.068061 L 453.224105 418.393409 L 451.370063 420.69371 L 449.484852 422.968539 L 447.568824 425.217472 L 445.622334 427.440091 L 443.645744 429.635986 L 441.63942 431.804747 L 439.603735 433.945973 L 437.539066 436.059265 L 435.445797 438.144232 L 433.324317 440.200487 L 431.175018 442.227647 L 428.998302 444.225337 L 426.79457 446.193186 L 424.564232 448.130828 L 422.307703 450.037904 L 420.025401 451.91406 L 417.71775 453.758947 L 415.385179 455.572224 L 413.028119 457.353552 L 410.647009 459.102603 L 408.242291 460.81905 L 405.814411 462.502577 L 403.36382 464.152869 L 400.890972 465.769621 L 398.396327 467.352532 L 395.880348 468.901309 L 393.343501 470.415665 L 390.786259 471.895317 L 388.209094 473.339992 L 385.612487 474.749422 L 382.996918 476.123344 L 380.362873 477.461504 L 377.710842 478.763653 L 375.041316 480.029549 L 372.354792 481.258958 L 369.651766 482.451652 L 366.932743 483.607408 L 364.198226 484.726013 L 361.448722 485.807258 L 358.684743 486.850944 L 355.9068 487.856876 L 353.115411 488.824868 L 350.311093 489.754739 L 359.158427 517.05785 L 362.333905 516.004908 L 365.494743 514.908799 L 368.640354 513.769729 L 371.770154 512.587909 L 374.883563 511.363557 L 377.980001 510.096902 L 381.058896 508.788178 L 384.119674 507.437628 L 387.161768 506.045503 L 390.184614 504.612061 L 393.187649 503.137569 L 396.170317 501.6223 L 399.132064 500.066535 L 402.072341 498.470563 L 404.9906 496.834681 L 407.886302 495.159192 L 410.758907 493.444408 L 413.607884 491.690645 L 416.432702 489.898231 L 419.232838 488.067497 L 422.007773 486.198784 L 424.75699 484.292438 L 427.479979 482.348813 L 430.176236 480.368271 L 432.84526 478.351178 L 435.486554 476.297909 L 438.09963 474.208846 L 440.684001 472.084375 L 443.239188 469.924892 L 445.764717 467.730798 L 448.260119 465.502498 L 450.724931 463.240408 L 453.158695 460.944947 L 455.56096 458.616541 L 457.931279 456.255623 L 460.269213 453.86263 L 462.574327 451.438006 L 464.846194 448.982203 L 467.084392 446.495676 L 469.288505 443.978885 L 471.458125 441.4323 L 473.592849 438.856391 L 475.69228 436.251638 L 477.756028 433.618523 L 479.783711 430.957537 L 481.774953 428.269171 L 483.729382 425.553927 L 485.646638 422.812307 L 487.526364 420.044821 L 489.36821 417.251981 L 491.171836 414.434308 L 492.936906 411.592323 L 494.663092 408.726554 L 496.350075 405.837534 L 497.997541 402.925798 L 499.605184 399.991887 L 501.172705 397.036346 Z " style="stroke: rgb(0%,0%,100%); stroke-linecap: butt; stroke-width: 1; fill: rgb(0%,0%,100%); fill-rule: evenodd;"/>
			<path d="M 423.25108 117.682107 L 426.125673 120.149222 L 428.956732 122.666174 L 431.743392 125.232195 L 434.484803 127.846503 L 437.180128 130.5083 L 439.828545 133.216773 L 442.429246 135.971096 L 444.981437 138.770428 L 447.48434 141.613915 L 449.93719 144.50069 L 452.339239 147.429871 L 454.689753 150.400565 L 456.988017 153.411864 L 459.233328 156.462851 L 461.425001 159.552593 L 463.562367 162.680149 L 465.644775 165.844564 L 467.671588 169.044871 L 469.642188 172.280096 L 471.555974 175.549249 L 473.412362 178.851334 L 475.210785 182.185343 L 476.950694 185.550258 L 478.631559 188.945053 L 480.252866 192.368692 L 481.814122 195.82013 L 483.314848 199.298313 L 484.754588 202.802181 L 486.132902 206.330663 L 487.44937 209.882685 L 488.703589 213.45716 L 489.895177 217.052999 L 491.023771 220.669104 L 492.089025 224.304372 L 493.090616 227.957694 L 494.028236 231.627953 L 494.901601 235.314032 L 495.710443 239.014804 L 496.454516 242.729141 L 497.133592 246.455908 L 497.747465 250.193969 L 498.295948 253.942183 L 498.778871 257.699406 L 499.19609 261.464492 L 499.547475 265.236291 L 499.83292 269.013652 L 500.052338 272.795424 L 500.205662 276.580451 L 500.292844 280.367579 L 500.313859 284.155653 L 500.2687 287.943515 L 500.157381 291.73001 L 499.979935 295.513984 L 499.736418 299.29428 L 499.426902 303.069745 L 499.051483 306.839228 L 498.610275 310.601578 L 498.103413 314.355647 L 497.531052 318.100289 L 496.893366 321.834361 L 496.190549 325.556724 L 495.422817 329.266243 L 494.590403 332.961784 L 493.693562 336.642221 L 492.732567 340.306431 L 491.707711 343.953294 L 490.619308 347.581698 L 489.467689 351.190536 L 488.253206 354.778707 L 486.976229 358.345116 L 485.637148 361.888674 L 484.236372 365.4083 L 482.774329 368.90292 L 481.251463 372.371467 L 479.668241 375.812884 L 478.025145 379.226119 L 476.322676 382.610132 L 474.561355 385.963889 L 472.741718 389.286367 L 470.864321 392.576553 L 468.929737 395.833442 L 466.938556 399.05604 L 464.891386 402.243364 L 462.788851 405.394441 L 460.631594 408.50831 L 458.420272 411.584021 L 456.15556 414.620634 L 453.83815 417.617224 L 451.468748 420.572876 L 449.048078 423.486687 L 446.576878 426.357769 L 444.055903 429.185245 L 441.485921 431.968253 L 438.867717 434.705944 L 436.202091 437.397481 L 433.489854 440.042044 L 430.731836 442.638826 L 427.928877 445.187034 L 425.081834 447.68589 L 422.191574 450.134633 L 419.25898 452.532514 L 437.23177 474.909154 L 440.552501 472.193906 L 443.825295 469.421065 L 447.049153 466.591478 L 450.223092 463.706007 L 453.346142 460.765534 L 456.417351 457.770955 L 459.435781 454.723185 L 462.400512 451.623153 L 465.310638 448.471806 L 468.165272 445.270104 L 470.963543 442.019026 L 473.704596 438.719563 L 476.387595 435.372723 L 479.011721 431.979526 L 481.576174 428.541008 L 484.080171 425.058218 L 486.522948 421.532219 L 488.903759 417.964087 L 491.221878 414.354911 L 493.476598 410.705793 L 495.66723 407.017845 L 497.793105 403.292194 L 499.853576 399.529976 L 501.848014 395.732339 L 503.775809 391.900442 L 505.636374 388.035455 L 507.429141 384.138557 L 509.153562 380.210937 L 510.809111 376.253794 L 512.395284 372.268335 L 513.911596 368.255777 L 515.357584 364.217344 L 516.732808 360.154268 L 518.036847 356.067789 L 519.269304 351.959155 L 520.429802 347.829618 L 521.517988 343.68044 L 522.533529 339.512887 L 523.476115 335.328229 L 524.345459 331.127745 L 525.141295 326.912716 L 525.863381 322.684428 L 526.511496 318.444172 L 527.085443 314.193241 L 527.585046 309.932933 L 528.010152 305.664548 L 528.360633 301.389389 L 528.636381 297.108759 L 528.837312 292.823966 L 528.963365 288.536317 L 529.014501 284.24712 L 528.990705 279.957684 L 528.891983 275.669318 L 528.718367 271.383331 L 528.469908 267.101031 L 528.146684 262.823725 L 527.748791 258.552717 L 527.276353 254.289311 L 526.729513 250.034809 L 526.108437 245.790508 L 525.413316 241.557703 L 524.644362 237.337687 L 523.801809 233.131747 L 522.885914 228.941167 L 521.896957 224.767225 L 520.83524 220.611196 L 519.701086 216.474346 L 518.494842 212.35794 L 517.216876 208.263233 L 515.867577 204.191474 L 514.447358 200.143906 L 512.956653 196.121764 L 511.395915 192.126277 L 509.765621 188.158662 L 508.066269 184.220131 L 506.298377 180.311885 L 504.462484 176.435117 L 502.559152 172.591011 L 500.58896 168.780739 L 498.552511 165.005465 L 496.450425 161.266339 L 494.283344 157.564504 L 492.051929 153.901088 L 489.756861 150.27721 L 487.398841 146.693976 L 484.978588 143.152479 L 482.49684 139.6538 L 479.954356 136.199006 L 477.351911 132.789152 L 474.690298 129.425279 L 471.970331 126.108412 L 469.192839 122.839564 L 466.35867 119.619733 L 463.468689 116.449901 L 460.523778 113.331036 L 457.524834 110.264088 L 454.472775 107.249995 L 451.36853 104.289676 L 448.213048 101.384034 L 445.00729 98.533955 L 441.752236 95.740311 Z " style="stroke: rgb(67%,84%,90%); stroke-linecap: butt; stroke-width: 1; fill: rgb(67%,84%,90%); fill-rule: evenodd;"/>
			<path d="M 244.23463 99.450202 L 247.208555 98.841232 L 250.191918 98.28032 L 253.183942 97.767615 L 256.183849 97.303248 L 259.190857 96.887341 L 262.204184 96.520002 L 265.223045 96.201326 L 268.246655 95.931398 L 271.274226 95.710286 L 274.30497 95.538049 L 277.338099 95.414731 L 280.372823 95.340365 L 283.408351 95.314969 L 286.443894 95.338551 L 289.478661 95.411104 L 292.511863 95.532609 L 295.54271 95.703035 L 298.570412 95.922338 L 301.594183 96.190459 L 304.613234 96.507331 L 307.62678 96.872869 L 310.634036 97.286979 L 313.634219 97.749553 L 316.62655 98.260471 L 319.610247 98.819599 L 322.584536 99.426793 L 325.548641 100.081893 L 328.501792 100.78473 L 331.443218 101.535121 L 334.372156 102.33287 L 337.287841 103.177769 L 340.189516 104.069599 L 343.076424 105.008127 L 345.947815 105.99311 L 348.802941 107.02429 L 351.641059 108.1014 L 354.461429 109.224159 L 357.263319 110.392274 L 360.045997 111.605442 L 362.808741 112.863347 L 365.550831 114.165661 L 368.271552 115.512045 L 370.970197 116.902149 L 373.646064 118.335612 L 376.298456 119.812059 L 378.926682 121.331106 L 381.530058 122.892359 L 384.107906 124.495411 L 386.659556 126.139844 L 389.184343 127.82523 L 391.68161 129.551131 L 394.150707 131.317097 L 396.590992 133.122669 L 399.001828 134.967376 L 401.382588 136.850739 L 403.732654 138.772267 L 406.051412 140.73146 L 424.7511 118.958613 L 422.078633 116.70056 L 419.370083 114.485918 L 416.626156 112.315262 L 413.847565 110.189159 L 411.035034 108.108161 L 408.189295 106.07281 L 405.311089 104.083636 L 402.401164 102.141157 L 399.46028 100.245878 L 396.4892 98.398294 L 393.488699 96.598884 L 390.459557 94.848117 L 387.402564 93.146449 L 384.318514 91.494323 L 381.208211 89.892169 L 378.072464 88.340404 L 374.91209 86.839432 L 371.72791 85.389643 L 368.520755 83.991416 L 365.291459 82.645113 L 362.040863 81.351086 L 358.769812 80.109672 L 355.479158 78.921193 L 352.169759 77.785959 L 348.842474 76.704265 L 345.498171 75.676393 L 342.13772 74.702611 L 338.761996 73.783171 L 335.371877 72.918314 L 331.968246 72.108265 L 328.551989 71.353234 L 325.123995 70.653418 L 321.685157 70.008998 L 318.23637 69.420144 L 314.778531 68.887008 L 311.312541 68.409728 L 307.839302 67.98843 L 304.359717 67.623223 L 300.874694 67.314201 L 297.385138 67.061446 L 293.891959 66.865022 L 290.396065 66.724982 L 286.898367 66.641362 L 283.399776 66.614183 L 279.901201 66.643452 L 276.403553 66.729163 L 272.907744 66.871292 L 269.414683 67.069803 L 265.925279 67.324643 L 262.44044 67.635747 L 258.961075 68.003034 L 255.488088 68.426408 L 252.022384 68.905758 L 248.564864 69.440961 L 245.116429 70.031876 L 241.677977 70.67835 L 238.250402 71.380214 Z " style="stroke: rgb(0%,0%,100%); stroke-linecap: butt; stroke-width: 1; fill: rgb(0%,0%,100%); fill-rule: evenodd;"/>
			<path d="M 185.744733 122.681768 L 188.370864 121.114753 L 191.022117 119.590628 L 193.697791 118.109796 L 196.397181 116.672647 L 199.119571 115.279561 L 201.864245 113.930907 L 204.630475 112.627041 L 207.417532 111.368306 L 210.224679 110.155037 L 213.051175 108.987552 L 215.896273 107.866161 L 218.759221 106.79116 L 221.639263 105.762833 L 224.535639 104.781451 L 227.447582 103.847275 L 230.374323 102.960549 L 233.315091 102.12151 L 236.269106 101.330378 L 239.23559 100.587362 L 242.213759 99.89266 L 245.202825 99.246453 L 248.201999 98.648914 L 251.210489 98.100199 L 254.2275 97.600455 L 257.252235 97.149812 L 260.283894 96.74839 L 263.321678 96.396295 L 266.364782 96.09362 L 269.412405 95.840445 L 272.463739 95.636837 L 275.51798 95.482849 L 278.57432 95.378523 L 281.631952 95.323886 L 284.690068 95.318952 L 287.747861 95.363722 L 290.804522 95.458186 L 293.859244 95.602317 L 296.911219 95.796078 L 299.959643 96.039417 L 303.003708 96.332271 L 306.042612 96.674561 L 309.075551 97.066198 L 312.101724 97.507078 L 315.120332 97.997085 L 318.130577 98.536089 L 321.131664 99.123947 L 324.1228 99.760505 L 327.103194 100.445594 L 330.07206 101.179033 L 333.028614 101.960629 L 335.972073 102.790174 L 338.901661 103.667451 L 341.816603 104.592226 L 344.71613 105.564257 L 347.599475 106.583285 L 350.465877 107.649042 L 353.314579 108.761247 L 363.969666 82.111587 L 360.686416 80.829725 L 357.382766 79.601395 L 354.059589 78.426921 L 350.717761 77.306615 L 347.358167 76.240772 L 343.981692 75.229674 L 340.589231 74.273587 L 337.181678 73.372765 L 333.759934 72.527445 L 330.324903 71.737851 L 326.877492 71.004191 L 323.418612 70.32666 L 319.949178 69.705435 L 316.470104 69.140682 L 312.982312 68.632549 L 309.486721 68.181171 L 305.984255 67.786666 L 302.475841 67.44914 L 298.962404 67.168681 L 295.444872 66.945363 L 291.924176 66.779246 L 288.401245 66.670373 L 284.877009 66.618773 L 281.352401 66.62446 L 277.82835 66.687432 L 274.305789 66.807672 L 270.785647 66.985149 L 267.268854 67.219816 L 263.756341 67.511611 L 260.249033 67.860457 L 256.747859 68.266261 L 253.253743 68.728917 L 249.767608 69.248302 L 246.290375 69.824279 L 242.822963 70.456695 L 239.366288 71.145385 L 235.921263 71.890165 L 232.488797 72.69084 L 229.069799 73.547196 L 225.66517 74.45901 L 222.275812 75.426038 L 218.902618 76.448027 L 215.54648 77.524705 L 212.208285 78.655789 L 208.888914 79.84098 L 205.589245 81.079964 L 202.31015 82.372414 L 199.052493 83.71799 L 195.817137 85.116335 L 192.604936 86.567079 L 189.416738 88.069841 L 186.253386 89.624222 L 183.115715 91.229812 L 180.004554 92.886187 L 176.920726 94.592909 L 173.865045 96.349527 L 170.838318 98.155578 Z " style="stroke: rgb(67%,84%,90%); stroke-linecap: butt; stroke-width: 1; fill: rgb(67%,84%,90%); fill-rule: evenodd;"/>
			<path d="M 218.600886 460.079904 L 215.538975 458.925071 L 212.497612 457.717159 L 209.477718 456.456534 L 206.480205 455.143577 L 203.505981 453.778685 L 200.555946 452.362272 L 197.63099 450.894766 L 194.732001 449.37661 L 191.859854 447.808264 L 189.015418 446.190203 L 186.199554 444.522915 L 183.413114 442.806906 L 180.65694 441.042694 L 177.931867 439.230813 L 175.238718 437.371812 L 172.578309 435.466251 L 169.951443 433.514709 L 167.358917 431.517775 L 164.801514 429.476054 L 162.280008 427.390162 L 159.795161 425.260732 L 157.347725 423.088407 L 154.938441 420.873844 L 152.568038 418.617713 L 150.237232 416.320698 L 147.946728 413.983492 L 145.69722 411.606803 L 143.489388 409.191349 L 141.3239 406.737862 L 139.201411 404.247083 L 137.122563 401.719767 L 135.087985 399.156677 L 133.098293 396.558589 L 131.154087 393.926289 L 129.255957 391.260574 L 127.404477 388.562249 L 125.600206 385.83213 L 123.843692 383.071045 L 122.135463 380.279828 L 120.476039 377.459323 L 118.86592 374.610383 L 117.305594 371.733872 L 115.795533 368.830657 L 114.336193 365.901619 L 112.928017 362.947643 L 111.571429 359.969622 L 110.266841 356.968458 L 109.014647 353.945058 L 107.815225 350.900337 L 106.668939 347.835216 L 105.576136 344.750622 L 104.537146 341.647489 L 103.552283 338.526755 L 102.621846 335.389363 L 101.746115 332.236264 L 100.925356 329.068412 L 100.159816 325.886763 L 99.449728 322.692281 L 98.795307 319.485933 L 98.19675 316.268688 L 97.654238 313.041519 L 97.167936 309.805403 L 96.73799 306.561318 L 96.364531 303.310247 L 96.047672 300.053172 L 95.787508 296.791079 L 95.584118 293.524954 L 95.437564 290.255786 L 95.34789 286.984564 L 95.315124 283.712276 L 95.339274 280.439914 L 95.420334 277.168467 L 95.55828 273.898924 L 95.753068 270.632276 L 96.004642 267.369509 L 96.312924 264.111611 L 96.677821 260.859567 L 97.099223 257.614362 L 97.577003 254.376976 L 98.111015 251.14839 L 98.701099 247.92958 L 99.347076 244.72152 L 100.048749 241.525179 L 100.805908 238.341526 L 101.618323 235.171523 L 102.485749 232.016129 L 103.407922 228.876299 L 104.384564 225.752982 L 105.41538 222.647124 L 106.500057 219.559663 L 107.638268 216.491535 L 108.829668 213.443666 L 110.073897 210.416979 L 111.370579 207.41239 L 112.71932 204.430808 L 114.119714 201.473134 L 115.571336 198.540263 L 117.073748 195.633083 L 118.626494 192.752473 L 120.229106 189.899304 L 121.881098 187.074439 L 123.58197 184.278733 L 125.331209 181.513032 L 127.128284 178.778173 L 128.972653 176.074982 L 130.863757 173.404277 L 132.801025 170.766867 L 134.78387 168.163549 L 136.811692 165.595111 L 138.883878 163.06233 L 140.999801 160.565971 L 143.158821 158.10679 L 145.360285 155.685532 L 147.603528 153.302928 L 149.887869 150.959699 L 152.212619 148.656554 L 154.577073 146.39419 L 156.980518 144.173291 L 159.422225 141.994529 L 161.901456 139.858563 L 164.417461 137.766039 L 166.969479 135.717591 L 169.556739 133.713837 L 172.178456 131.755385 L 174.833838 129.842826 L 177.522083 127.97674 L 180.242376 126.15769 L 182.993895 124.386227 L 185.775807 122.662886 L 188.587271 120.98819 L 191.427436 119.362644 L 194.295444 117.786741 L 197.190426 116.260958 L 200.111507 114.785755 L 203.057803 113.361579 L 206.028423 111.98886 L 209.022468 110.668015 L 212.039032 109.399443 L 215.077204 108.183527 L 218.136063 107.020635 L 221.214685 105.91112 L 211.71894 78.826696 L 208.170698 80.105459 L 204.645233 81.445741 L 201.143612 82.847136 L 197.666893 84.309219 L 194.21613 85.831549 L 190.792364 87.413665 L 187.396633 89.055088 L 184.029964 90.755322 L 180.693374 92.513853 L 177.387874 94.330148 L 174.114463 96.203658 L 170.874132 98.133816 L 167.66786 100.120039 L 164.496618 102.161725 L 161.361365 104.258258 L 158.263049 106.409001 L 155.202608 108.613307 L 152.180968 110.870506 L 149.199042 113.179917 L 146.257733 115.54084 L 143.357931 117.952562 L 140.500512 120.414353 L 137.686341 122.925469 L 134.916269 125.485149 L 132.191135 128.09262 L 129.511762 130.747092 L 126.878962 133.447762 L 124.293531 136.193815 L 121.75625 138.984418 L 119.267888 141.818728 L 116.829197 144.695887 L 114.440914 147.615025 L 112.103763 150.575259 L 109.818451 153.575693 L 107.585668 156.61542 L 105.40609 159.69352 L 103.280377 162.809062 L 101.209171 165.961103 L 99.193099 169.148691 L 97.232772 172.37086 L 95.328781 175.626636 L 93.481703 178.915034 L 91.692097 182.23506 L 89.960504 185.585708 L 88.287448 188.965966 L 86.673435 192.374811 L 85.118953 195.811211 L 83.624473 199.274127 L 82.190447 202.762511 L 80.817308 206.275309 L 79.505471 209.811458 L 78.255335 213.369887 L 77.067276 216.94952 L 75.941654 220.549275 L 74.87881 224.168062 L 73.879066 227.804787 L 72.942723 231.45835 L 72.070065 235.127646 L 71.261357 238.811563 L 70.516841 242.508989 L 69.836745 246.218804 L 69.221273 249.939886 L 68.670612 253.67111 L 68.184928 257.411347 L 67.764368 261.159465 L 67.40906 264.91433 L 67.119111 268.674807 L 66.894609 272.439759 L 66.735621 276.208045 L 66.642195 279.978526 L 66.614361 283.750063 L 66.652126 287.521512 L 66.755479 291.291735 L 66.924389 295.059589 L 67.158804 298.823936 L 67.458654 302.583637 L 67.823848 306.337554 L 68.254275 310.084552 L 68.749806 313.823497 L 69.31029 317.553257 L 69.935558 321.272706 L 70.62542 324.980718 L 71.379668 328.67617 L 72.198075 332.357946 L 73.080391 336.02493 L 74.026351 339.676015 L 75.035668 343.310095 L 76.108037 346.926071 L 77.243133 350.52285 L 78.440613 354.099343 L 79.700115 357.654468 L 81.021258 361.187149 L 82.403642 364.696319 L 83.846849 368.180916 L 85.350442 371.639885 L 86.913967 375.07218 L 88.53695 378.476763 L 90.218901 381.852603 L 91.95931 385.198681 L 93.757652 388.513983 L 95.613382 391.797506 L 97.525939 395.048257 L 99.494744 398.265254 L 101.519202 401.447521 L 103.598701 404.594098 L 105.73261 407.704032 L 107.920285 410.776383 L 110.161064 413.81022 L 112.454269 416.804626 L 114.799207 419.758696 L 117.195167 422.671535 L 119.641426 425.542263 L 122.137243 428.370011 L 124.681862 431.153923 L 127.274516 433.893158 L 129.914418 436.586887 L 132.600771 439.234295 L 135.332761 441.834581 L 138.109563 444.386958 L 140.930336 446.890655 L 143.794227 449.344914 L 146.70037 451.748992 L 149.647886 454.102163 L 152.635882 456.403714 L 155.663456 458.652949 L 158.72969 460.849188 L 161.833658 462.991766 L 164.974421 465.080036 L 168.151028 467.113365 L 171.362518 469.091138 L 174.607921 471.012758 L 177.886253 472.877642 L 181.196525 474.685227 L 184.537733 476.434966 L 187.908868 478.126329 L 191.308909 479.758805 L 194.736828 481.3319 L 198.191589 482.845139 L 201.672145 484.298062 L 205.177444 485.690232 L 208.706426 487.021226 Z " style="stroke: rgb(0%,0%,100%); stroke-linecap: butt; stroke-width: 1; fill: rgb(0%,0%,100%); fill-rule: evenodd;"/>
			<circle cx="283.46456692913387" cy="283.46456692913387" r="216.85039370078738" style="stroke: rgb(0%,0%,0%); stroke-linecap: butt; stroke-width: 1; fill: none; fill-rule: evenodd;"/>
			<g transform=" matrix(0.88661,0.462518,-0.462518,0.88661,501.172705,397.036346)">
				<text x="0" y="0" style="font-family: Helvetica; font-size: 6px;fill: rgb(0%,0%,0%); stroke:none;" transform="translate(0,0) scale(1,-1)"> v2 </text>
			</g>
			<g transform=" matrix(0.644622,-0.764502,0.764502,0.644622,441.752236,95.740311)">
				<text x="0" y="0" style="font-family: Helvetica; font-size: 6px;fill: rgb(0%,0%,0%); stroke:none;" transform="translate(0,0) scale(1,-1)"> v1 </text>
			</g>
			<g transform=" matrix(-0.208504,-0.978022,0.978022,-0.208504,244.23463,99.450202)">
				<text x="-9.672" y="0" style="font-family: Helvetica; font-size: 6px;fill: rgb(0%,0%,0%); stroke:none;" transform="translate(0,0) scale(1,-1)"> c3 </text>
			</g>
			<g transform=" matrix(-0.519373,-0.854548,0.854548,-0.519373,185.744733,122.681768)">
				<text x="-9.672" y="0" style="font-family: Helvetica; font-size: 6px;fill: rgb(0%,0%,0%); stroke:none;" transform="translate(0,0) scale(1,-1)"> c2 </text>
			</g>
			<g transform=" matrix(0.330853,0.943682,-0.943682,0.330853,221.214685,105.91112)">
				<text x="0" y="0" style="font-family: Helvetica; font-size: 6px;fill: rgb(0%,0%,0%); stroke:none;" transform="translate(0,0) scale(1,-1)"> c1 </text>
			</g>
		</g>
	</g>
</svg>
